<?xml version="1.0" standalone="no"?><svg xmlns:xlink="http://www.w3.org/1999/xlink" xmlns="http://www.w3.org/2000/svg" viewBox="0 0 1000 562.501029467477" preserveAspectRatio="xMaxYMax slice"><g transform="scale(0.8235739816507717)"><rect x="0" y="0" width="1214.2222222222222" height="683" fill="#dfe4ea"/><g transform="translate(0,0) scale(3.7945) rotate(0)"><path d="M10 5L5 0L0 5L5 10L0 15L5 20L10 15L15 20L20 15L15 10L20 5L15 0L10 5Z" fill="#dfb3b6"/></g><g transform="translate(607.11,0) scale(3.7945) rotate(0)"><path d="M10 5L5 0L0 5L5 10L0 15L5 20L10 15L15 20L20 15L15 10L20 5L15 0L10 5Z" fill="#a7d8b7"/></g><rect x="683" y="0" width="75.88888888888889" height="75.88888888888889" fill="#dfe4ea"/><g transform="translate(683,0) scale(1.8969999999999998) rotate(0)"><path d="M10 5L5 0L0 5L5 10L0 15L5 20L10 15L15 20L20 15L15 10L20 5L15 0L10 5Z" fill="#cee0da"/></g><rect x="303.55555555555554" y="151.77777777777777" width="75.88888888888889" height="75.88888888888889" fill="#dfe4ea"/><g transform="translate(341.5,189.72) scale(1.8969999999999998) rotate(0)"><path d="M10 5L5 0L0 5L5 10L0 15L5 20L10 15L15 20L20 15L15 10L20 5L15 0L10 5Z" fill="#76ce8b"/></g><rect x="834.7777777777777" y="151.77777777777777" width="75.88888888888889" height="75.88888888888889" fill="#dfe4ea"/><rect x="683" y="227.66666666666666" width="75.88888888888889" height="75.88888888888889" fill="#dfe4ea"/><rect x="758.8888888888889" y="227.66666666666666" width="75.88888888888889" height="75.88888888888889" fill="#dfe4ea"/><rect x="1138.3333333333333" y="227.66666666666666" width="75.88888888888889" height="75.88888888888889" fill="#dfe4ea"/><rect x="758.8888888888889" y="303.55555555555554" width="75.88888888888889" height="75.88888888888889" fill="#dfe4ea"/><rect x="910.6666666666666" y="303.55555555555554" width="75.88888888888889" height="75.88888888888889" fill="#dfe4ea"/><rect x="986.5555555555555" y="303.55555555555554" width="75.88888888888889" height="75.88888888888889" fill="#dfe4ea"/><g transform="translate(986.56,341.5) scale(1.8969999999999998) rotate(0)"><path d="M10 5L5 0L0 5L5 10L0 15L5 20L10 15L15 20L20 15L15 10L20 5L15 0L10 5Z" fill="#53c76a"/></g><g transform="translate(1024.5,341.5) scale(1.8969999999999998) rotate(0)"><path d="M10 5L5 0L0 5L5 10L0 15L5 20L10 15L15 20L20 15L15 10L20 5L15 0L10 5Z" fill="#de7573"/></g><rect x="379.44444444444446" y="379.44444444444446" width="75.88888888888889" height="75.88888888888889" fill="#dfe4ea"/><g transform="translate(379.44,379.44) scale(1.8969999999999998) rotate(0)"><path d="M10 5L5 0L0 5L5 10L0 15L5 20L10 15L15 20L20 15L15 10L20 5L15 0L10 5Z" fill="#a9d9b9"/></g><g transform="translate(417.39,379.44) scale(1.8969999999999998) rotate(0)"><path d="M10 5L5 0L0 5L5 10L0 15L5 20L10 15L15 20L20 15L15 10L20 5L15 0L10 5Z" fill="#de7a79"/></g><g transform="translate(910.67,379.44) scale(3.7945) rotate(0)"><path d="M10 5L5 0L0 5L5 10L0 15L5 20L10 15L15 20L20 15L15 10L20 5L15 0L10 5Z" fill="#dfd7dd"/></g><rect x="0" y="455.3333333333333" width="75.88888888888889" height="75.88888888888889" fill="#dfe4ea"/><g transform="translate(0,455.33) scale(1.8969999999999998) rotate(0)"><path d="M10 5L5 0L0 5L5 10L0 15L5 20L10 15L15 20L20 15L15 10L20 5L15 0L10 5Z" fill="#dfb5b8"/></g><rect x="227.66666666666666" y="455.3333333333333" width="75.88888888888889" height="75.88888888888889" fill="#dfe4ea"/><g transform="translate(265.61,493.28) scale(1.8969999999999998) rotate(0)"><path d="M10 5L5 0L0 5L5 10L0 15L5 20L10 15L15 20L20 15L15 10L20 5L15 0L10 5Z" fill="#dfdce2"/></g><g transform="translate(455.33,455.33) scale(3.7945) rotate(0)"><path d="M10 5L5 0L0 5L5 10L0 15L5 20L10 15L15 20L20 15L15 10L20 5L15 0L10 5Z" fill="#80d094"/></g><rect x="227.66666666666666" y="531.2222222222222" width="75.88888888888889" height="75.88888888888889" fill="#dfe4ea"/><g transform="translate(227.67,531.22) scale(1.8969999999999998) rotate(0)"><path d="M10 5L5 0L0 5L5 10L0 15L5 20L10 15L15 20L20 15L15 10L20 5L15 0L10 5Z" fill="#dfabad"/></g><g transform="translate(531.22,531.22) scale(3.7945) rotate(0)"><path d="M10 5L5 0L0 5L5 10L0 15L5 20L10 15L15 20L20 15L15 10L20 5L15 0L10 5Z" fill="#dfc3c6"/></g><rect x="683" y="531.2222222222222" width="75.88888888888889" height="75.88888888888889" fill="#dfe4ea"/></g></svg>