<svg id="visual" viewBox="0 0 900 600" width="900" height="600" xmlns="http://www.w3.org/2000/svg" xmlns:xlink="http://www.w3.org/1999/xlink" version="1.1"><path d="M0 465L21.5 462.2C43 459.3 86 453.7 128.8 453.2C171.7 452.7 214.3 457.3 257.2 469C300 480.7 343 499.3 385.8 495.3C428.7 491.3 471.3 464.7 514.2 446.5C557 428.3 600 418.7 642.8 420.3C685.7 422 728.3 435 771.2 433.2C814 431.3 857 414.7 878.5 406.3L900 398L900 601L878.5 601C857 601 814 601 771.2 601C728.3 601 685.7 601 642.8 601C600 601 557 601 514.2 601C471.3 601 428.7 601 385.8 601C343 601 300 601 257.2 601C214.3 601 171.7 601 128.8 601C86 601 43 601 21.5 601L0 601Z" fill="#dfe4ea" stroke-linecap="round" stroke-linejoin="miter"></path></svg>