<?xml version="1.0" standalone="no"?>
<!DOCTYPE svg PUBLIC "-//W3C//DTD SVG 20010904//EN"
 "http://www.w3.org/TR/2001/REC-SVG-20010904/DTD/svg10.dtd">
<svg version="1.0" xmlns="http://www.w3.org/2000/svg"
 width="4256.000000pt" height="2832.000000pt" viewBox="0 0 4256.000000 2832.000000"
 preserveAspectRatio="xMidYMid meet">

<g transform="translate(0.000000,2832.000000) scale(0.100000,-0.100000)"
fill="#000000" stroke="none">
<path d="M0 14160 l0 -14160 21280 0 21280 0 0 14160 0 14160 -21280 0 -21280
0 0 -14160z m13950 1553 c12 -32 173 -463 357 -958 184 -495 339 -907 344
-915 5 -9 9 398 9 958 l0 972 364 0 364 0 10 -57 c6 -32 90 -530 187 -1108 97
-577 179 -1057 182 -1065 3 -8 7 -10 9 -5 2 6 89 509 193 1119 104 609 192
1110 194 1112 2 2 116 3 253 2 l250 -3 -342 -1605 -341 -1605 -207 -3 c-206
-2 -206 -2 -216 20 -5 13 -101 457 -212 988 l-203 965 -5 -985 -5 -985 -224 0
-224 0 -366 968 -366 968 -5 -968 -5 -968 -237 -3 -238 -2 0 1610 0 1610 229
0 230 0 21 -57z m3831 -578 l218 -610 1 613 0 612 145 0 145 0 0 -1020 0
-1020 -134 0 -134 0 -39 108 c-22 59 -123 336 -224 616 l-184 508 -3 -616 -2
-616 -145 0 -145 0 0 1020 0 1021 141 -3 142 -3 218 -610z m1639 480 l0 -135
-285 0 -285 0 0 -300 0 -300 250 0 250 0 0 -140 0 -140 -250 0 -250 0 0 -295
0 -295 285 0 285 0 0 -150 0 -150 -430 0 -430 0 0 1020 0 1020 430 0 430 0 0
-135z m865 106 c120 -47 187 -110 241 -225 48 -101 68 -229 61 -381 -9 -177
-45 -289 -122 -374 -27 -29 -96 -84 -122 -96 -2 -1 67 -210 152 -464 85 -255
155 -465 155 -467 0 -2 -69 -4 -153 -4 l-152 0 -135 435 -135 435 -87 0 -88 0
0 -435 0 -435 -145 0 -145 0 0 1021 0 1021 308 -4 c295 -4 309 -5 367 -27z
m835 -991 l0 -1020 -145 0 -145 0 0 1020 0 1020 145 0 145 0 0 -1020z m1025
998 c5 -23 224 -1373 226 -1392 2 -28 16 55 119 679 60 369 112 685 115 703
l6 32 154 0 155 0 -6 -27 c-3 -16 -97 -473 -208 -1018 l-202 -990 -129 0 -129
0 -206 1018 -206 1017 153 0 c150 0 153 0 158 -22z m1245 -998 l0 -1020 -145
0 -145 0 0 1020 0 1020 145 0 145 0 0 -1020z m570 150 l0 -870 290 0 290 0 0
-150 0 -150 -435 0 -435 0 0 1020 0 1020 145 0 145 0 0 -870z m1060 0 l0 -870
285 0 285 0 0 -150 0 -150 -430 0 -430 0 0 1020 0 1020 145 0 145 0 0 -870z
m1630 735 l0 -135 -287 -2 -288 -3 -3 -297 -2 -298 250 0 250 0 0 -140 0 -140
-250 0 -250 0 0 -295 0 -295 288 -2 287 -3 3 -147 3 -148 -436 0 -435 0 0
1020 0 1020 435 0 435 0 0 -135z m746 126 c188 -36 315 -157 359 -343 12 -52
15 -169 15 -659 0 -561 -1 -600 -20 -673 -11 -43 -32 -100 -47 -128 -34 -63
-117 -139 -186 -171 -99 -46 -144 -52 -422 -52 l-260 0 -3 1018 -2 1017 259 0
c142 0 280 -4 307 -9z m1187 -13 c3 -13 103 -461 221 -996 119 -535 219 -984
222 -997 l6 -25 -146 0 c-80 0 -146 1 -146 3 -1 1 -20 99 -43 217 l-42 215
-198 3 c-108 1 -197 1 -198 0 0 -2 -19 -100 -42 -218 l-42 -215 -149 -3 c-117
-2 -147 0 -144 10 3 7 106 466 229 1021 l223 1007 122 0 c118 0 122 -1 127
-22z m-7822 -2348 c132 -25 254 -121 301 -238 19 -48 23 -75 23 -172 0 -108
-2 -119 -32 -182 -40 -85 -106 -151 -191 -191 -63 -30 -74 -32 -177 -32 -148
1 -204 22 -296 114 -79 79 -109 147 -117 263 -13 210 104 379 297 430 78 20
119 22 192 8z m-3093 -24 c56 -24 126 -102 142 -161 31 -112 -21 -233 -125
-288 -34 -18 -63 -22 -185 -27 l-145 -5 -3 -152 -3 -153 -29 0 -30 0 0 406 0
406 168 -4 c130 -4 176 -9 210 -22z m832 -11 l0 -35 -190 0 -191 0 3 -142 3
-143 173 -3 172 -2 0 -30 0 -30 -172 -2 -173 -3 -3 -157 -3 -158 198 -2 198
-3 3 -32 3 -33 -230 0 -231 0 0 405 0 405 220 0 220 0 0 -35z m670 9 c111 -51
162 -167 129 -289 -13 -49 -94 -130 -141 -143 -18 -5 -32 -14 -31 -19 2 -9
116 -206 175 -300 l20 -33 -39 0 -38 0 -101 168 -100 167 -105 0 -104 0 -3
-167 -2 -168 -30 0 -30 0 0 406 0 406 178 -4 c151 -3 184 -7 222 -24z m724 15
c58 -16 123 -81 141 -142 23 -77 21 -87 -19 -87 -32 0 -34 2 -39 42 -10 77
-67 125 -159 135 -75 7 -135 -11 -180 -57 -34 -33 -38 -43 -38 -87 0 -89 37
-118 203 -157 172 -41 233 -80 257 -164 43 -155 -81 -292 -265 -292 -149 0
-260 88 -280 223 l-7 47 36 0 c33 0 36 -3 36 -27 1 -49 36 -110 80 -139 34
-22 55 -28 120 -32 67 -4 86 -1 124 18 61 29 88 70 94 137 4 51 3 55 -34 91
-35 35 -51 42 -168 71 -133 33 -189 56 -217 87 -96 110 -45 278 98 330 46 16
164 18 217 3z m1757 -325 l244 -336 5 333 5 334 33 3 32 3 0 -405 0 -406 -28
0 c-26 0 -52 32 -273 336 l-244 336 -3 -336 -2 -336 -35 0 -35 0 0 398 c0 219
3 402 7 405 3 4 16 7 28 7 18 0 73 -69 266 -336z m1007 149 c45 -104 123 -286
175 -405 l95 -218 -37 0 -37 0 -45 108 -46 107 -205 3 -206 2 -45 -107 -45
-108 -37 -3 c-28 -3 -36 0 -33 10 13 33 331 784 335 791 2 4 14 7 27 7 20 0
33 -22 104 -187z m554 -185 l3 -373 188 -3 187 -2 0 -30 0 -30 -220 0 -220 0
0 405 0 405 30 0 30 0 2 -372z m1426 335 l3 -33 -130 0 -131 0 0 -370 0 -370
-30 0 -30 0 0 370 0 370 -125 0 -125 0 0 35 0 35 283 -2 282 -3 3 -32z m638 2
c175 -90 162 -351 -21 -421 l-43 -16 84 -140 c46 -76 91 -153 99 -169 l16 -29
-38 0 -38 0 -94 160 c-51 88 -99 164 -106 170 -8 7 -52 10 -111 8 l-99 -3 -3
-167 -2 -168 -30 0 -30 0 0 406 0 406 178 -3 c176 -4 180 -5 238 -34z m841
-350 c90 -209 169 -390 174 -403 8 -22 7 -23 -28 -20 -36 3 -37 4 -83 108
l-47 105 -204 3 -205 2 -44 -106 c-24 -58 -49 -108 -56 -111 -7 -2 -24 -3 -37
-1 l-25 3 84 200 c274 649 254 606 281 603 22 -3 41 -40 190 -383z m463 -20
l0 -405 -30 0 -30 0 0 405 0 405 30 0 30 0 0 -405z m624 61 l246 -339 0 342 0
342 33 -3 32 -3 3 -402 2 -403 -29 0 c-28 0 -48 25 -273 334 l-243 334 -3
-334 -2 -334 -35 0 -35 0 0 406 0 405 29 -3 c26 -3 58 -42 275 -342z m1074
307 l3 -33 -190 0 -191 0 0 -145 0 -145 175 0 175 0 0 -30 0 -30 -175 0 -175
0 0 -160 0 -160 195 0 195 0 0 -35 0 -35 -230 0 -230 0 0 398 c0 219 3 402 7
406 4 3 104 5 222 4 l216 -3 3 -32z m680 4 c170 -89 169 -328 -2 -412 -31 -15
-56 -30 -56 -32 0 -3 43 -76 95 -163 52 -87 95 -161 95 -165 0 -3 -17 -5 -37
-3 -37 3 -39 5 -136 171 l-99 167 -104 0 -104 0 0 -170 0 -170 -35 0 -35 0 0
406 0 406 183 -4 c175 -4 184 -5 235 -31z"/>
<path d="M19900 15160 l0 -322 128 4 c140 5 170 14 216 68 39 47 50 101 50
250 0 259 -42 307 -276 318 l-118 5 0 -323z"/>
<path d="M27130 14735 l0 -747 113 3 c132 5 168 20 207 90 l25 44 3 575 c4
618 1 656 -46 711 -38 46 -84 61 -199 67 l-103 5 0 -748z"/>
<path d="M28450 15156 c0 -11 -130 -688 -136 -708 -5 -17 6 -18 141 -18 135 0
146 1 141 18 -3 9 -35 172 -71 362 -57 297 -75 380 -75 346z"/>
<path d="M20594 13311 c-104 -27 -197 -110 -234 -209 -30 -78 -25 -213 11
-287 65 -136 213 -209 370 -184 148 24 250 124 279 276 31 157 -48 317 -188
381 -61 27 -177 39 -238 23z"/>
<path d="M17352 13128 l3 -183 130 0 c123 0 133 2 175 27 121 71 120 249 -3
315 -25 14 -64 18 -170 21 l-137 4 2 -184z"/>
<path d="M18830 13139 l0 -171 148 4 c141 3 150 4 189 30 53 35 77 85 71 153
-5 65 -37 111 -92 136 -34 15 -66 19 -178 19 l-138 0 0 -171z"/>
<path d="M22544 13246 c-4 -10 -41 -99 -84 -199 l-77 -182 89 -3 c49 -1 126
-1 172 0 l83 3 -83 194 c-46 106 -86 196 -88 199 -3 3 -8 -3 -12 -12z"/>
<path d="M24922 13143 l3 -168 123 -3 c144 -3 194 8 238 52 83 83 57 218 -50
267 -33 15 -66 19 -179 19 l-137 0 2 -167z"/>
<path d="M25842 13068 c-45 -107 -82 -197 -82 -201 0 -4 77 -7 171 -7 133 0
170 3 166 13 -26 66 -161 374 -167 380 -4 4 -43 -79 -88 -185z"/>
<path d="M28610 13140 l0 -170 123 0 c142 0 184 10 232 51 62 55 70 158 17
221 -47 55 -90 68 -239 68 l-133 0 0 -170z"/>
</g>
</svg>
